<svg width="24" height="24" viewBox="0 0 24 24" fill="none" xmlns="http://www.w3.org/2000/svg">
<path d="M23.8789 18.1104L17.1103 11.3418L19.025 9.42715L14.4517 4.85382L12.537 6.76852L5.76849 0L0 5.76849L6.76852 12.537L0.963447 18.3421V22.9154H5.53677L11.3418 17.1103L18.1104 23.8789L23.8789 18.1104V18.1104ZM8.50029 10.8052L3.45134 5.76849L5.76849 3.45134L7.31732 5.00017L5.86605 6.45144L7.58562 8.17101L9.03689 6.71974L10.8052 8.48809L8.50029 10.8052V10.8052ZM13.0736 15.3786L15.3908 13.0614L17.1591 14.8298L15.7079 16.281L17.4274 18.0006L18.8787 16.5493L20.4275 18.0982L18.1104 20.4153L13.0736 15.3786V15.3786ZM15.7603 3.55256L18.8555 0.456113L23.4264 5.027L20.3312 8.12345L15.7603 3.55256Z" fill="#F9995D"/>
</svg>
