<svg width="28" height="28" viewBox="0 0 28 28" fill="none" xmlns="http://www.w3.org/2000/svg">
<path d="M24.9432 8.85194C25.5901 8.85194 26.2105 9.10892 26.6679 9.56634C27.1254 10.0238 27.3823 10.6442 27.3823 11.291V16.1693C27.3823 16.8162 27.1254 17.4365 26.6679 17.894C26.2105 18.3514 25.5901 18.6084 24.9432 18.6084H23.6481C23.3508 20.9661 22.2032 23.1344 20.4208 24.7061C18.6384 26.2779 16.3437 27.1452 13.9673 27.1452V24.7061C15.9079 24.7061 17.7691 23.9352 19.1414 22.5629C20.5136 21.1907 21.2846 19.3295 21.2846 17.3888V10.0715C21.2846 8.13082 20.5136 6.26963 19.1414 4.89736C17.7691 3.5251 15.9079 2.75417 13.9673 2.75417C12.0266 2.75417 10.1654 3.5251 8.79313 4.89736C7.42086 6.26963 6.64993 8.13082 6.64993 10.0715V18.6084H2.99127C2.34438 18.6084 1.72398 18.3514 1.26656 17.894C0.809142 17.4365 0.552165 16.8162 0.552165 16.1693V11.291C0.552165 10.6442 0.809142 10.0238 1.26656 9.56634C1.72398 9.10892 2.34438 8.85194 2.99127 8.85194H4.28644C4.58405 6.49441 5.73171 4.32651 7.51408 2.75499C9.29645 1.18348 11.591 0.316376 13.9673 0.316376C16.3435 0.316376 18.6381 1.18348 20.4204 2.75499C22.2028 4.32651 23.3505 6.49441 23.6481 8.85194H24.9432ZM8.79635 18.3462L10.0891 16.2778C11.2514 17.0059 12.5957 17.391 13.9673 17.3888C15.3388 17.391 16.6831 17.0059 17.8454 16.2778L19.1382 18.3462C17.5884 19.3171 15.796 19.8307 13.9673 19.8279C12.1385 19.8307 10.3461 19.3171 8.79635 18.3462Z" fill="#F9995D"/>
</svg>
